<svg version="1.1" xmlns="http://www.w3.org/2000/svg" xmlns:xlink="http://www.w3.org/1999/xlink" role="img" width="133" height="90" viewbox="0 0 133 90"><title>TRN</title><desc>Generated by logo.svg, https://github.com/bubkoo/logo.svg</desc><path fill="#2b68a7" d="M6.89 70.35L7.46 67.66L8.94 67.66Q11.05 67.66 12.74 66.96Q14.44 66.26 15.08 63.38L22.63 27.86L16.49 27.86Q13.67 27.86 12.23 29.42Q10.79 30.99 10.09 33.10L9.19 35.86L5.86 35.86L8.55 24.66L44.58 24.66L42.54 35.86L39.21 35.86Q39.27 35.54 39.34 34.64Q39.40 33.74 39.46 32.94Q39.53 32.14 39.53 31.95Q39.53 30.29 38.63 29.07Q37.74 27.86 35.30 27.86L29.10 27.86L21.54 63.31Q21.29 64.34 21.29 65.10Q21.29 66.77 22.60 67.22Q23.91 67.66 25.90 67.66L27.37 67.66L26.79 70.35L6.89 70.35ZM38.95 70.35L39.53 67.66L40.36 67.66Q42.41 67.66 44.10 66.96Q45.80 66.26 46.44 63.38L53.16 31.70Q53.42 30.67 53.42 29.90Q53.42 28.24 52.14 27.79Q50.86 27.34 48.81 27.34L47.98 27.34L48.55 24.66L65.32 24.66Q79.98 24.66 79.98 35.54Q79.98 39.89 78.15 42.64Q76.33 45.39 73.58 46.86Q70.82 48.34 68.14 48.91L72.74 62.61Q73.64 65.23 74.73 66.45Q75.82 67.66 77.99 67.66L78.50 67.66L77.99 70.35L77.16 70.35Q73.51 70.35 71.30 69.71Q69.10 69.07 67.85 67.47Q66.60 65.87 65.77 62.86L62.06 50.19L55.72 50.19L52.90 63.31Q52.65 64.34 52.65 65.10Q52.65 66.77 53.93 67.22Q55.21 67.66 57.26 67.66L59.37 67.66L58.79 70.35L38.95 70.35M56.36 47.18L61.29 47.18Q64.68 47.18 67.37 46.03Q70.06 44.88 71.62 42.42Q73.19 39.95 73.19 35.92Q73.19 31.38 71.14 29.55Q69.10 27.73 64.81 27.73L60.46 27.73L56.36 47.18ZM81.45 70.35L82.02 67.66L82.86 67.66Q84.97 67.66 86.66 66.86Q88.36 66.06 89.00 63.06L95.66 31.70Q95.91 30.67 95.91 29.90Q95.91 28.24 94.63 27.79Q93.35 27.34 91.30 27.34L90.47 27.34L91.05 24.66L102.70 24.66L118.18 59.98L124.20 31.70Q124.46 30.67 124.46 29.90Q124.46 28.24 123.18 27.79Q121.90 27.34 119.85 27.34L119.02 27.34L119.59 24.66L135.66 24.66L135.08 27.34L134.25 27.34Q132.07 27.34 130.38 28.14Q128.68 28.94 128.04 31.95L119.91 70.35L115.75 70.35L99.30 32.85L92.84 63.31Q92.58 64.34 92.58 65.10Q92.58 66.77 93.86 67.22Q95.14 67.66 97.19 67.66L98.02 67.66L97.45 70.35L81.45 70.35Z"></path></svg>